<?xml version="1.0" encoding="utf-8"?>
<!-- Generator: Adobe Illustrator 18.1.1, SVG Export Plug-In . SVG Version: 6.00 Build 0)  -->
<svg version="1.1" id="Layer_1" xmlns="http://www.w3.org/2000/svg" xmlns:xlink="http://www.w3.org/1999/xlink" x="0px" y="0px"
	 viewBox="-2 -3.6 34 39" enable-background="new -2 -3.6 34 39" xml:space="preserve">
<g>
	<g>
		<path fill="none" stroke="#3878FF" stroke-width="3" stroke-linejoin="round" stroke-miterlimit="10" d="M29,8.4"/>
	</g>
</g>
<g>
	<g>
		<g>
			<path fill="#EE4722" d="M15,0.4l14,8v16l-14,8l-14-8v-16L15,0.4 M15-2.6c-0.5,0-1,0.1-1.5,0.4l-14,8C-1.4,6.3-2,7.3-2,8.4v16
				c0,1.1,0.6,2.1,1.5,2.6l14,8c0.5,0.3,1,0.4,1.5,0.4s1-0.1,1.5-0.4l14-8c0.9-0.5,1.5-1.5,1.5-2.6v-16c0-1.1-0.6-2.1-1.5-2.6l-14-8
				C16-2.5,15.5-2.6,15-2.6L15-2.6z"/>
		</g>
	</g>
</g>
<g>
	<path fill="#EE4722" d="M14.3,14c-2,2.7-2.6,6.4-1.4,8.5c0.6,1,1.4,1.5,2.5,1.5c1.4,0,2.8-0.9,4-2.5c2-2.7,2.6-6.4,1.4-8.5
		c-0.6-1-1.4-1.5-2.5-1.5C17,11.4,15.5,12.3,14.3,14z M19.3,13.8c0.7,1.3,0.4,4.2-1.3,6.5c-1,1.3-2,1.8-2.6,1.8
		c-0.4,0-0.7-0.2-0.9-0.6c-0.2-0.3-0.3-0.8-0.4-1.3c0.4-0.4,0.8-0.8,1.2-1.3c1.1-1.5,1.9-3.5,1.9-5.3c0.4-0.3,0.8-0.4,1.1-0.4
		C18.8,13.2,19.1,13.4,19.3,13.8z M16.2,14.6c-0.2,1.3-0.8,2.7-1.6,3.8c-0.1,0.1-0.2,0.3-0.3,0.4c0.2-1.2,0.7-2.5,1.6-3.7
		C15.9,14.9,16,14.7,16.2,14.6z"/>
	<path fill="#EE4722" d="M24,8c0-0.1-0.1-0.1-0.2-0.2L20,5.5c0,0-0.1,0-0.2-0.1l-6.6-1.3c0,0-0.1,0-0.1,0c-0.3-0.1-0.6,0-0.8,0.3
		l-6.6,8.9c0,0,0,0.1-0.1,0.1c-0.1,0.1-0.2,0.3-0.2,0.5v10c0,0.3,0.1,0.5,0.3,0.6l3.8,2.5c0,0,0.1,0,0.1,0c0.1,0.2,0.3,0.3,0.5,0.3
		l6.6,1.3c0.1,0,0.1,0,0.2,0c0.3,0,0.6-0.1,0.7-0.4l6.6-8.9c0.1-0.2,0.2-0.3,0.2-0.5V8.7C24.4,8.4,24.3,8.1,24,8z M21.1,7.3
		l-3.9-0.8c0,0-0.1-0.1-0.1-0.1l-1.3-0.8l3.8,0.7L21.1,7.3z M13.1,5.9l2.5,1.5l-5.7,7.7l-2.5-1.5L13.1,5.9z M9.2,25.1l-2.3-1.5v-8.2
		l2.3,1.4V25.1z M22.6,18.7l-6.1,8.2l-5.4-1v-9.2l6.1-8.2l5.4,1V18.7z"/>
</g>
</svg>
