<?xml version="1.0" encoding="utf-8"?>
<!-- Generator: Adobe Illustrator 18.1.1, SVG Export Plug-In . SVG Version: 6.00 Build 0)  -->
<svg version="1.1" id="Layer_1" xmlns="http://www.w3.org/2000/svg" xmlns:xlink="http://www.w3.org/1999/xlink" x="0px" y="0px"
	 viewBox="0 0 60 60" enable-background="new 0 0 60 60" xml:space="preserve">
<g>
	<path fill="#FFFFFF" d="M45,60H15C6.7,60,0,53.3,0,45V15C0,6.7,6.7,0,15,0h30c8.3,0,15,6.7,15,15v30C60,53.3,53.3,60,45,60z"/>
</g>
<g>
	<path fill="#EE4722" d="M45,3.5c6.3,0,11.5,5.2,11.5,11.5v30c0,6.3-5.2,11.5-11.5,11.5H15C8.7,56.5,3.5,51.3,3.5,45V15
		C3.5,8.7,8.7,3.5,15,3.5H45 M45,0H15C6.7,0,0,6.7,0,15v30c0,8.3,6.7,15,15,15h30c8.3,0,15-6.7,15-15V15C60,6.7,53.3,0,45,0L45,0z"
		/>
</g>
<g>
	<g>
		<path fill="#EE4722" d="M41,48.3h-5.6c-0.7,0-1.3-0.6-1.3-1.3s0.6-1.3,1.3-1.3h4.3V12.3H20.2V47c0,0.7-0.6,1.3-1.3,1.3
			s-1.3-0.6-1.3-1.3V11c0-0.7,0.6-1.3,1.3-1.3H41c0.7,0,1.3,0.6,1.3,1.3v36C42.3,47.7,41.8,48.3,41,48.3z"/>
	</g>
	<g>
		<path fill="#EE4722" d="M35.4,54.3c-0.1,0-0.3,0-0.4-0.1l-16.5-6C18,48,17.7,47.5,17.7,47V11c0-0.4,0.2-0.8,0.6-1.1
			c0.3-0.2,0.8-0.3,1.2-0.2l16.5,6c0.5,0.2,0.8,0.7,0.8,1.2v36c0,0.4-0.2,0.8-0.6,1.1C36,54.2,35.7,54.3,35.4,54.3z M20.2,46.1
			l13.9,5.1V17.9l-13.9-5.1V46.1z"/>
	</g>
	<g>
		<path fill="#EE4722" d="M29.5,36.5c-0.8,0-1.5-0.7-1.5-1.5v-1c0-0.8,0.7-1.5,1.5-1.5S31,33.2,31,34v1C31,35.8,30.3,36.5,29.5,36.5
			z"/>
	</g>
</g>
</svg>
