<?xml version="1.0" encoding="utf-8"?>
<!-- Generator: Adobe Illustrator 18.1.1, SVG Export Plug-In . SVG Version: 6.00 Build 0)  -->
<svg version="1.1" id="Layer_1" xmlns="http://www.w3.org/2000/svg" xmlns:xlink="http://www.w3.org/1999/xlink" x="0px" y="0px"
	 viewBox="-2 -3.6 34 39" enable-background="new -2 -3.6 34 39" xml:space="preserve">
<g>
	<path fill="none" stroke="#3878FF" stroke-width="3" stroke-linejoin="round" stroke-miterlimit="10" d="M29,8.4"/>
</g>
<g>
	<g>
		<path fill="#3878FF" d="M15,0.4l14,8v16l-14,8l-14-8v-16L15,0.4 M15-2.6c-0.5,0-1,0.1-1.5,0.4l-14,8C-1.4,6.3-2,7.3-2,8.4v16
			c0,1.1,0.6,2.1,1.5,2.6l14,8c0.5,0.3,1,0.4,1.5,0.4s1-0.1,1.5-0.4l14-8c0.9-0.5,1.5-1.5,1.5-2.6v-16c0-1.1-0.6-2.1-1.5-2.6l-14-8
			C16-2.5,15.5-2.6,15-2.6L15-2.6z"/>
	</g>
</g>
<path fill="#3878FF" d="M20.5,8.5c0-0.2-0.2-0.4-0.4-0.5l-0.2-0.1c0,0,0,0,0,0c0,0-0.1,0-0.1,0l-8.2-4.2c-0.2-0.1-0.5-0.1-0.7,0
	c-0.2,0.1-0.3,0.3-0.3,0.6v17.3c0,0.2,0.1,0.5,0.4,0.6l2,1.1v4.9c0,0.5,0.3,1,0.8,1.3c0.2,0.1,0.5,0.2,0.7,0.2
	c0.3,0,0.5-0.1,0.8-0.2l4.6-2.8c0.4-0.3,0.7-0.8,0.7-1.3V9.2C20.6,8.9,20.6,8.7,20.5,8.5z M19.1,25.3l-4.6,2.8V11.9l4.6-2.7V25.3z"
	/>
<g>
	<path fill="#3878FF" d="M14.4,19.9c-0.2,0-0.4-0.1-0.5-0.3c-0.2-0.3-0.1-0.7,0.2-0.8l1.3-0.7c0.3-0.2,0.7-0.1,0.8,0.2
		c0.2,0.3,0.1,0.7-0.2,0.8l-1.3,0.7C14.6,19.9,14.5,19.9,14.4,19.9z"/>
</g>
</svg>
