<?xml version="1.0" encoding="utf-8"?>
<!-- Generator: Adobe Illustrator 18.1.1, SVG Export Plug-In . SVG Version: 6.00 Build 0)  -->
<svg version="1.1" id="Layer_1" xmlns="http://www.w3.org/2000/svg" xmlns:xlink="http://www.w3.org/1999/xlink" x="0px" y="0px"
	 viewBox="-2 -3.6 34 39" enable-background="new -2 -3.6 34 39" xml:space="preserve">
<g>
	<path fill="none" stroke="#3878FF" stroke-width="3" stroke-linejoin="round" stroke-miterlimit="10" d="M29,8.4"/>
</g>
<g>
	<path fill="none" stroke="#3878FF" stroke-width="3" stroke-linejoin="round" stroke-miterlimit="10" d="M25.4,10.5"/>
</g>
<g>
	<path fill="#3878FF" d="M15,0.4l14,8v16l-14,8l-14-8v-16L15,0.4 M15-2.6c-0.5,0-1,0.1-1.5,0.4l-14,8C-1.4,6.3-2,7.3-2,8.4v16
		c0,1.1,0.6,2.1,1.5,2.6l14,8c0.5,0.3,1,0.4,1.5,0.4s1-0.1,1.5-0.4l14-8c0.9-0.5,1.5-1.5,1.5-2.6v-16c0-1.1-0.6-2.1-1.5-2.6l-14-8
		C16-2.5,15.5-2.6,15-2.6L15-2.6z"/>
</g>
<g>
	<path fill="#3878FF" d="M15,16.9c-0.2,0-0.3,0-0.5-0.1l-14-7.5C0,9-0.1,8.4,0.1,7.9C0.4,7.4,1,7.2,1.5,7.5l14,7.5
		c0.5,0.3,0.7,0.9,0.4,1.4C15.7,16.7,15.4,16.9,15,16.9z"/>
</g>
<g>
	<path fill="#3878FF" d="M15,33.4c-0.6,0-1-0.4-1-1V15.9c0-0.4,0.2-0.7,0.5-0.9l14-7.5c0.5-0.3,1.1-0.1,1.4,0.4
		C30.1,8.4,30,9,29.5,9.3L16,16.5v15.9C16,32.9,15.6,33.4,15,33.4z"/>
</g>
<g>
	<rect x="6" y="11.7" fill="#3878FF" width="1.7" height="16.4"/>
</g>
<g>
	<path fill="#3878FF" d="M15,14.1c-0.3,0-0.6-0.3-0.6-0.6V1.7c0-0.3,0.3-0.6,0.6-0.6s0.6,0.3,0.6,0.6v11.7
		C15.6,13.8,15.3,14.1,15,14.1z"/>
</g>
<g>
	<path fill="#3878FF" d="M25.8,8.5H4.4C4,8.5,3.8,8.2,3.8,7.9S4,7.3,4.4,7.3h21.4c0.3,0,0.6,0.3,0.6,0.6S26.1,8.5,25.8,8.5z"/>
</g>
</svg>
