<?xml version="1.0" encoding="utf-8"?>
<!-- Generator: Adobe Illustrator 18.1.1, SVG Export Plug-In . SVG Version: 6.00 Build 0)  -->
<svg version="1.1" xmlns="http://www.w3.org/2000/svg" xmlns:xlink="http://www.w3.org/1999/xlink" x="0px" y="0px"
	 viewBox="-2 -3.6 34 39" enable-background="new -2 -3.6 34 39" xml:space="preserve">
<g id="Layer_3" display="none">
	<path display="inline" fill="#3878FF" d="M20.9,8.4C20,8,18.7,8.6,17.7,9.9l-4.1-1.9c0-0.7-0.3-1.3-0.8-1.5C12,6,10.7,7,10.1,8.5
		C9.7,9.2,9.6,10,9.7,10.6c0.1,0.7,0.3,1.1,0.7,1.3c0.5,0.2,1,0.1,1.6-0.4l4.1,1.9c-0.3,1.7,0.1,3.1,1.1,3.5
		c0.5,0.3,1.2,0.2,1.9-0.2c0.9-0.5,1.8-1.6,2.4-2.9C22.5,11.4,22.3,9,20.9,8.4z M20.8,13.5c-0.4,1-1.1,1.8-1.8,2.2
		c-0.5,0.3-1,0.3-1.4,0.2c-0.7-0.4-1-1.5-0.7-2.9c0.1-0.2,0-0.4-0.1-0.5l-4.5-2.1c-0.1,0-0.2,0-0.2,0c0,0-0.1,0.1-0.1,0.1
		c-0.4,0.4-0.8,0.5-1.1,0.4c-0.2-0.1-0.4-0.4-0.4-0.8c0-0.4,0-0.9,0.2-1.3c0.4-0.9,1.2-1.5,1.7-1.2c0.3,0.1,0.5,0.6,0.5,1.1
		c0,0.2,0,0.3,0.1,0.4l4.5,2.1c0.1,0.1,0.3,0,0.5-0.2c0.8-1.1,1.9-1.7,2.6-1.3C21.4,10,21.6,11.8,20.8,13.5z"/>
	<path display="inline" fill="#3878FF" d="M19,10.5c-0.9,0.5-1.6,1.9-1.6,3.1c0,1.2,0.7,1.7,1.6,1.2s1.6-1.9,1.6-3.1
		C20.6,10.5,19.9,10,19,10.5z M19,13.7c-0.5,0.3-0.8,0-0.8-0.6c0-0.6,0.4-1.3,0.8-1.6c0.5-0.3,0.8,0,0.8,0.6
		C19.9,12.8,19.5,13.5,19,13.7z"/>
</g>
<g id="Layer_2">
</g>
<g id="Layer_1">
	<g>
		<g>
			<g>
				<path fill="none" stroke="#3878FF" stroke-width="3" stroke-linejoin="round" stroke-miterlimit="10" d="M29,7.9"/>
			</g>
		</g>
		<g>
			<g>
				<g>
					<path fill="#EE4722" d="M15,0.4l14,8v16l-14,8l-14-8v-16L15,0.4 M15-2.6c-0.5,0-1,0.1-1.5,0.4l-14,8C-1.4,6.3-2,7.3-2,8.4v16
						c0,1.1,0.6,2.1,1.5,2.6l14,8c0.5,0.3,1,0.4,1.5,0.4s1-0.1,1.5-0.4l14-8c0.9-0.5,1.5-1.5,1.5-2.6v-16c0-1.1-0.6-2.1-1.5-2.6
						l-14-8C16-2.5,15.5-2.6,15-2.6L15-2.6z"/>
				</g>
			</g>
		</g>
		<path fill="#EE4722" d="M17.7,24.8L17.7,24.8C17.6,24.9,17.6,24.9,17.7,24.8z"/>
		<path fill="none" d="M11.4,6.1c-0.2-0.1-0.5-0.2-0.6-0.3c0,0-0.1,0-0.2,0c-0.5,0.1-1.1,0.7-1.3,0.9c0,0-0.9,1.1-1.1,2.7
			c-0.1,0.8,0.2,1.2,0.3,1.3L9,11.1c0,0,0,0,0,0c-0.1-0.8,0.1-1.8,0.5-2.7C10,7.4,10.7,6.6,11.4,6.1z"/>
		<path fill="none" d="M8.3,13.7L8.3,13.7L8.3,13.7c0,0.1,0.1,0.1,0.2,0.1C8.4,13.7,8.4,13.7,8.3,13.7z"/>
		<path fill="none" d="M10.1,13.8L10.1,13.8C10.1,13.8,10.1,13.8,10.1,13.8C10.1,13.8,10.1,13.8,10.1,13.8z"/>
		<path fill="none" d="M6.6,15c0,0.7,1.1,1.3,2.5,1.3c1.3,0,2.4-0.6,2.4-1.3l0-0.1c0-0.3-0.2-0.6-0.5-0.8L10.9,15l0,0
			c0,0.7-0.8,1.2-1.8,1.2c-1,0-1.8-0.6-1.8-1.3c0,0,0,0,0-0.1l0,0l0.1-0.8C6.9,14.3,6.6,14.7,6.6,15z"/>
		<path fill="none" d="M9.4,13.9c-0.3,0-0.6-0.1-0.9-0.2c-0.1,0-0.1,0-0.2,0l-0.2,1.1l0,0c0,0,0,0,0,0c0,0.1,0.4,0.4,0.9,0.4
			c0.6,0,0.9-0.3,0.9-0.4c0,0,0-0.1,0-0.1l0,0l0.1-1l0,0c0,0-0.1,0-0.1,0C9.8,13.9,9.6,13.9,9.4,13.9z"/>
		<polygon fill="#3878FF" points="8.1,14.9 8.1,14.9 8.1,14.9 		"/>
		<polygon fill="#3878FF" points="8.1,14.9 8.1,14.9 8.1,14.9 		"/>
		<path fill="none" d="M7.4,20.1l0,0.1l-0.1,1.2l0,0c0,0,0,0,0,0l0,0c0,0.2,0.4,0.5,1.1,0.5c0.6,0,1.1-0.3,1.1-0.5c0,0,0,0,0-0.1
			l0,0l0,0c0,0,0-0.1,0-0.1l0,0.1c0,0,0,0,0,0l0.1-1l0-0.2c-0.3,0-0.5,0.1-0.8,0.1C8.2,20.3,7.8,20.2,7.4,20.1z"/>
		<polygon fill="#3878FF" points="7.2,21.5 7.2,21.5 7.2,21.4 		"/>
		<polygon fill="#3878FF" points="7.2,21.4 7.2,21.4 7.2,21.4 		"/>
		<polygon fill="#3878FF" points="9.3,21.4 9.3,21.4 9.3,21.4 		"/>
		<path fill="#3878FF" d="M9.3,21.4L9.3,21.4C9.4,21.3,9.4,21.3,9.3,21.4z"/>
		<path fill="none" d="M6.4,16.4L6.4,16.4L6.2,18l0,0.1c0,0,0,0,0,0c0,0.3,0.2,0.5,0.4,0.7c0.2,0.2,0.5,0.3,0.8,0.4
			c0.4,0.1,0.8,0.2,1.2,0.2c0.3,0,0.6,0,0.9-0.1c0.3-0.1,0.7-0.2,0.9-0.4c0.3-0.2,0.6-0.5,0.6-0.8l0,0l0,0l0.2-1.4l0-0.1
			c-0.6,0.4-1.4,0.6-2.3,0.6C8,17.2,7,16.9,6.4,16.4z"/>
		<path fill="#3878FF" d="M6.2,18.1C6.2,18.1,6.2,18.1,6.2,18.1L6.2,18.1C6.2,18.1,6.2,18.1,6.2,18.1z"/>
		<polygon fill="#3878FF" points="6.2,18.1 6.2,18.1 6.2,18.1 		"/>
		<polygon fill="#EE4722" points="7.2,21.4 7.2,21.4 7.2,21.4 		"/>
		<path fill="none" d="M19.1,10.9c-0.6,0.3-1,1.2-1,1.9c0,0.7,0.5,1.1,1,0.8c0.6-0.3,1-1.2,1-1.9C20.1,11,19.7,10.6,19.1,10.9z"/>
		<path fill="#EE4722" d="M20.9,15.9c-1.1,0.6-2,0-2-1.5c0-1.5,0.9-3.2,2-3.8c1.1-0.6,2,0,2,1.5C22.9,13.6,22,15.3,20.9,15.9z
			 M20.9,11.9c-0.6,0.3-1,1.2-1,1.9c0,0.7,0.5,1.1,1,0.8c0.6-0.3,1-1.2,1-1.9C21.9,11.9,21.5,11.6,20.9,11.9z"/>
		<g>
			<path fill="#EE4722" d="M11.5,15.3L11.5,15.3c-0.1,0.7-1.2,1.4-2.5,1.4c-1.3,0-2.5-0.6-2.5-1.3c0-0.4,0.3-0.7,0.8-1l0.1-1
				c-1,0.4-1.7,1.1-1.8,1.9l0,0l-0.4,3.1l0,0c0,0,0,0,0,0.1c0,0.7,0.5,1.3,1.2,1.7l-0.2,1.6l0,0c0,0,0,0,0,0c0,0.8,0.8,1.3,1.9,1.3
				c1.1,0,1.9-0.6,1.9-1.3l0,0l0.2-1.5c0.9-0.4,1.5-1,1.6-1.7l0.4-3.2l0,0c0,0,0,0,0-0.1c0-0.7-0.5-1.3-1.3-1.7L11,14.5
				C11.3,14.7,11.5,15,11.5,15.3z M9.5,20.6l-0.1,1c0,0,0,0.1,0,0.1c0,0.2-0.4,0.5-1.1,0.5c-0.6,0-1.1-0.3-1.1-0.5c0,0,0,0,0,0
				c0,0,0,0,0,0l0,0l0,0l0.1-1.2l0-0.1c0.4,0.1,0.8,0.2,1.3,0.2c0.3,0,0.6,0,0.8-0.1L9.5,20.6z M11.3,17l-0.2,1.4l0,0l0,0
				c0,0.3-0.3,0.6-0.6,0.8c-0.3,0.2-0.6,0.3-0.9,0.4c-0.3,0.1-0.6,0.1-0.9,0.1c-0.4,0-0.8-0.1-1.2-0.2c-0.3-0.1-0.6-0.2-0.8-0.4
				c-0.3-0.2-0.4-0.5-0.4-0.7l0,0l0,0c0,0,0,0,0,0c0,0,0,0,0-0.1l0.2-1.6l0-0.1C7,17.1,8,17.5,9.1,17.5c0.9,0,1.7-0.2,2.3-0.6
				L11.3,17z"/>
			<path fill="#EE4722" d="M11.2,12.9C11.2,12.9,11.2,12.9,11.2,12.9c-0.3,0.1-0.6,0.2-0.9,0.1c-0.1,0.1-0.4,0.3-0.9,0.3
				c-0.6,0-0.9-0.3-0.9-0.4c0-0.1,0.3-0.3,0.7-0.4l-1-0.6c-0.3,0.2-0.6,0.5-0.6,0.9l0,0l-0.1,0.5l-0.1,1l-0.1,0.8l0,0c0,0,0,0,0,0.1
				c0,0.7,0.8,1.3,1.8,1.3c1,0,1.7-0.5,1.8-1.2l0,0l0.1-0.7l0.1-0.9L11.2,12.9L11.2,12.9C11.2,12.9,11.2,12.9,11.2,12.9z M10.1,14.1
				L10.1,14.1l-0.1,1l0,0c0,0,0,0.1,0,0.1c0,0.1-0.4,0.4-0.9,0.4c-0.6,0-0.9-0.3-0.9-0.4l0,0l0,0c0,0,0,0,0,0c0,0,0,0,0,0L8.3,14
				l0,0l0-0.1c0.1,0,0.1,0,0.2,0.1c0.3,0.1,0.6,0.2,0.9,0.2C9.6,14.2,9.8,14.1,10.1,14.1C10.1,14.1,10.1,14.1,10.1,14.1L10.1,14.1z"
				/>
			<path fill="#EE4722" d="M23.2,8.3C23.2,8.3,23.2,8.2,23.2,8.3L23.2,8.3c-0.1,0-1.6-0.9-2.1-1.1c-0.2-0.1-0.4-0.1-0.6-0.1
				c-0.5,0-1,0.1-1.6,0.5c-0.5,0.4-1.1,1.1-1.5,1.5l-3.2-1.5c0-0.9-0.4-1.6-0.9-1.9c0,0,0,0,0,0c0,0-1.3-0.8-1.8-1
				c-0.1,0-0.6-0.1-0.6-0.1c-1,0.1-2,1.3-2,1.3S7.7,7.3,7.6,9.3c-0.1,1.6,0.7,2.2,0.7,2.2l1.7,0.9l0,0c0.1,0.1,0.2,0.2,0.3,0.2
				c0.6,0.3,1.3,0.1,2-0.5l3.3,1.5c-0.1,0.5-0.1,1.2-0.1,1.8c0.1,1.1,0.6,1.8,0.6,1.8l2.2,1.3c0.1,0.1,0.2,0.2,0.3,0.2
				c0.7,0.3,1.5,0.2,2.3-0.3c1.2-0.7,2.2-2,2.9-3.6C25.1,12,24.9,9,23.2,8.3z M19.5,8.4c0.4-0.3,0.8-0.4,1-0.4c0.2,0,0.3,0,0.3,0
				c0.1,0,0.3,0.1,0.5,0.2c-0.7,0.3-1.4,0.9-2.1,1.7l-0.9-0.4C18.7,9.2,19.1,8.7,19.5,8.4z M8.6,9.4c0.1-1.6,1-2.7,1.1-2.7
				c0.2-0.3,0.8-0.8,1.3-0.9c0.1,0,0.2,0,0.2,0c0.1,0,0.3,0.1,0.6,0.3C11,6.5,10.3,7.3,9.9,8.3C9.5,9.2,9.3,10.2,9.4,11c0,0,0,0,0,0
				l-0.5-0.3C8.7,10.6,8.5,10.2,8.6,9.4z M16.4,15.4c0-0.4,0-0.9,0-1.3l0.8,0.4c-0.1,0.9-0.1,1.7,0,2.4l-0.6-0.3
				C16.6,16.4,16.5,16,16.4,15.4z M23.1,14.6c-0.5,1.2-1.3,2.2-2.2,2.7c-0.6,0.4-1.2,0.4-1.7,0.2c-0.9-0.4-1.3-1.9-0.9-3.6
				c0.1-0.3,0-0.5-0.2-0.6l-5.5-2.6c-0.1,0-0.2,0-0.3,0c0,0-0.1,0.1-0.1,0.1c-0.5,0.5-1,0.6-1.3,0.4c-0.3-0.1-0.5-0.5-0.5-1
				c0-0.5,0.1-1.1,0.3-1.6c0.5-1.1,1.4-1.8,2-1.5c0.4,0.2,0.6,0.7,0.6,1.3c0,0.2,0.1,0.4,0.2,0.4l5.5,2.6c0.2,0.1,0.4,0,0.6-0.3
				c1-1.4,2.3-2,3.2-1.6C23.8,10.2,24.1,12.4,23.1,14.6z"/>
			<path fill="#EE4722" d="M21.1,19.1C21.1,19.1,21.1,19.1,21.1,19.1c-0.3,0.2-0.6,0.3-0.9,0.4c-1.1,0.4-2.1,0-2.7-0.8l-1.8-1
				l-3.9,9.6l0,0c-0.1,0.2-0.1,0.3-0.1,0.5c0,1,1.3,1.7,2.9,1.7c1.6,0,2.9-0.8,2.9-1.7c0,0.1,0,0.2-0.1,0.3L21.1,19.1z M12.9,27.8
				C12.9,27.8,12.9,27.8,12.9,27.8c-0.2-0.1-0.3-0.2-0.2-0.3l3.1-7.9c0.1-0.1,0.2-0.2,0.3-0.1c0.1,0.1,0.2,0.2,0.1,0.3l-3.1,7.9
				C13.1,27.8,13,27.8,12.9,27.8z M17.1,26.6l-0.2,0.5c0,0-0.5,1.3-1.6,1.5c-1.6,0.3-1.1-1.3-1.1-1.3l0.5-1.4c0,0,2.3-5.9,2.3-5.9
				c0.3,0.5,0.8,1.1,2.3,1L17.1,26.6z"/>
		</g>
	</g>
</g>
</svg>
