<?xml version="1.0" encoding="utf-8"?>
<!-- Generator: Adobe Illustrator 18.1.1, SVG Export Plug-In . SVG Version: 6.00 Build 0)  -->
<svg version="1.1" id="Layer_1" xmlns="http://www.w3.org/2000/svg" xmlns:xlink="http://www.w3.org/1999/xlink" x="0px" y="0px"
	 viewBox="0 0 60 75" enable-background="new 0 0 60 75" xml:space="preserve">
<g>
	<g>
		<path fill="#3878FF" d="M45,0H15C6.7,0,0,6.7,0,15v30c0,8.3,6.7,15,15,15h4.8L30,75l10.2-15H45c8.3,0,15-6.7,15-15V15
			C60,6.7,53.3,0,45,0z"/>
	</g>
	<g>
		<g>
			<path fill="#FFFFFF" d="M35.5,20.9h-2c-0.4,0-0.6-0.3-0.6-0.6v-12c0-0.4,0.3-0.6,0.6-0.6h2c0.4,0,0.6,0.3,0.6,0.6v12
				C36.1,20.7,35.9,20.9,35.5,20.9z M34.1,19.6h0.7V8.9h-0.7V19.6z"/>
		</g>
		<g>
			<path fill="#FFFFFF" d="M37.5,14.9h-6c-0.4,0-0.6-0.3-0.6-0.6v-4c0-0.4,0.3-0.6,0.6-0.6h6c0.4,0,0.6,0.3,0.6,0.6v4
				C38.1,14.7,37.9,14.9,37.5,14.9z M32.1,13.6h4.7v-2.7h-4.7V13.6z"/>
		</g>
	</g>
	<g>
		<path fill="#FFFFFF" d="M54.6,34.9H5.4c-0.4,0-0.8-0.3-0.8-0.8v-6.1c0-0.4,0.3-0.8,0.8-0.8h49.1c0.4,0,0.8,0.3,0.8,0.8v6.1
			C55.3,34.6,55,34.9,54.6,34.9z M6.2,33.4h47.6v-4.6H6.2V33.4z"/>
	</g>
	<g>
		<path fill="#FFFFFF" d="M34.5,25.5c-0.3,0-0.5-0.2-0.5-0.5v-1c0-0.3,0.2-0.5,0.5-0.5S35,23.7,35,24v1C35,25.3,34.8,25.5,34.5,25.5
			z"/>
	</g>
	<g>
		<path fill="#FFFFFF" d="M29.5,15h-3.3c-1.6,0-2.9-1.3-2.9-2.9c0-1.6,1.3-2.9,2.9-2.9h3.3c0.4,0,0.8,0.3,0.8,0.8s-0.3,0.8-0.8,0.8
			h-3.3c-0.8,0-1.4,0.6-1.4,1.4c0,0.8,0.6,1.4,1.4,1.4h3.3c0.4,0,0.8,0.3,0.8,0.8S29.9,15,29.5,15z"/>
	</g>
	<g>
		<path fill="#FFFFFF" d="M46.5,15h-6c-0.4,0-0.8-0.3-0.8-0.8s0.3-0.8,0.8-0.8h6c0.4,0,0.8,0.3,0.8,0.8S46.9,15,46.5,15z"/>
	</g>
	<g>
		<path fill="#FFFFFF" d="M18.2,14.9h-4.4c-0.4,0-0.6-0.3-0.6-0.6V9.9c0-0.4,0.3-0.6,0.6-0.6h4.4c0.4,0,0.6,0.3,0.6,0.6v4.4
			C18.9,14.6,18.6,14.9,18.2,14.9z M14.5,13.6h3.1v-3.1h-3.1V13.6z"/>
	</g>
	<g>
		<path fill="#FFFFFF" d="M54.5,49.8h-49c-0.4,0-0.8-0.3-0.8-0.8V36.5c0-0.4,0.3-0.8,0.8-0.8h49c0.4,0,0.8,0.3,0.8,0.8v12.6
			C55.2,49.5,54.9,49.8,54.5,49.8z M6.2,48.3h47.5V37.3H6.2V48.3z"/>
	</g>
	<g>
		<path fill="#FFFFFF" d="M13,28.8c-0.4,0-0.8-0.3-0.8-0.8V17c0-0.4,0.3-0.8,0.8-0.8s0.8,0.3,0.8,0.8v11
			C13.8,28.4,13.4,28.8,13,28.8z"/>
	</g>
	<g>
		<path fill="#FFFFFF" d="M30,20.3H17c-0.4,0-0.8-0.3-0.8-0.8s0.3-0.8,0.8-0.8h13c0.4,0,0.8,0.3,0.8,0.8S30.4,20.3,30,20.3z"/>
	</g>
	<g>
		<path fill="#FFFFFF" d="M46.5,28.8c-0.4,0-0.8-0.3-0.8-0.8V17c0-0.4,0.3-0.8,0.8-0.8s0.8,0.3,0.8,0.8v11
			C47.3,28.4,46.9,28.8,46.5,28.8z"/>
	</g>
	<g>
		<path fill="#FFFFFF" d="M30,23.3H17c-0.4,0-0.8-0.3-0.8-0.8s0.3-0.8,0.8-0.8h13c0.4,0,0.8,0.3,0.8,0.8S30.4,23.3,30,23.3z"/>
	</g>
	<g>
		<path fill="#FFFFFF" d="M43,20.3h-5c-0.4,0-0.8-0.3-0.8-0.8s0.3-0.8,0.8-0.8h5c0.4,0,0.8,0.3,0.8,0.8S43.4,20.3,43,20.3z"/>
	</g>
	<g>
		<path fill="#FFFFFF" d="M43,23.3h-5c-0.4,0-0.8-0.3-0.8-0.8s0.3-0.8,0.8-0.8h5c0.4,0,0.8,0.3,0.8,0.8S43.4,23.3,43,23.3z"/>
	</g>
	<g>
		<g>
			<rect x="32.5" y="10.9" fill="#3878FF" width="3.9" height="2.7"/>
		</g>
	</g>
</g>
</svg>
