<?xml version="1.0" encoding="utf-8"?>
<!-- Generator: Adobe Illustrator 18.1.1, SVG Export Plug-In . SVG Version: 6.00 Build 0)  -->
<svg version="1.1" id="Layer_1" xmlns="http://www.w3.org/2000/svg" xmlns:xlink="http://www.w3.org/1999/xlink" x="0px" y="0px"
	 viewBox="0 0 60 60" enable-background="new 0 0 60 60" xml:space="preserve">
<g>
	<g>
		<path fill="#3878FF" d="M45,60H15C6.7,60,0,53.3,0,45V15C0,6.7,6.7,0,15,0h30c8.3,0,15,6.7,15,15v30C60,53.3,53.3,60,45,60z"/>
	</g>
	<g>
		<g>
			<path fill="#FFFFFF" d="M35.5,22.5h-2c-0.4,0-0.7-0.3-0.7-0.6v-12c0-0.4,0.3-0.6,0.7-0.6h2c0.4,0,0.7,0.3,0.7,0.6v12
				C36.2,22.3,35.9,22.5,35.5,22.5z M34.2,21.2h0.7V10.5h-0.7V21.2z"/>
		</g>
		<g>
			<path fill="#FFFFFF" d="M37.5,16.5h-6c-0.4,0-0.6-0.3-0.6-0.6v-4c0-0.4,0.3-0.6,0.6-0.6h6c0.4,0,0.7,0.3,0.7,0.6v4
				C38.2,16.3,37.9,16.5,37.5,16.5z M32.2,15.2h4.7v-2.7h-4.7V15.2z"/>
		</g>
	</g>
	<g>
		<path fill="#FFFFFF" d="M50,33.5H10c-0.4,0-0.8-0.3-0.8-0.8v-3c0-0.4,0.3-0.8,0.8-0.8h40c0.4,0,0.8,0.3,0.8,0.8v3
			C50.8,33.1,50.4,33.5,50,33.5z M10.8,32h38.5v-1.5H10.8V32z"/>
	</g>
	<g>
		<path fill="#FFFFFF" d="M34.5,25.5c-0.3,0-0.5-0.2-0.5-0.5v-1c0-0.3,0.2-0.5,0.5-0.5S35,23.7,35,24v1C35,25.3,34.8,25.5,34.5,25.5
			z"/>
	</g>
	<g>
		<path fill="#FFFFFF" d="M29.5,16.6h-3.3c-1.6,0-2.9-1.3-2.9-2.9c0-1.6,1.3-2.9,2.9-2.9h3.3c0.4,0,0.8,0.3,0.8,0.8
			s-0.3,0.8-0.8,0.8h-3.3c-0.8,0-1.4,0.6-1.4,1.4c0,0.8,0.6,1.4,1.4,1.4h3.3c0.4,0,0.8,0.3,0.8,0.8S29.9,16.6,29.5,16.6z"/>
	</g>
	<g>
		<path fill="#FFFFFF" d="M46.5,16.6h-6c-0.4,0-0.8-0.3-0.8-0.8s0.3-0.8,0.8-0.8h6c0.4,0,0.8,0.3,0.8,0.8S46.9,16.6,46.5,16.6z"/>
	</g>
	<g>
		<path fill="#FFFFFF" d="M18.2,16.5h-4.4c-0.4,0-0.6-0.3-0.6-0.6v-4.4c0-0.4,0.3-0.6,0.6-0.6h4.4c0.4,0,0.6,0.3,0.6,0.6v4.4
			C18.9,16.2,18.6,16.5,18.2,16.5z M14.5,15.2h3.1v-3.1h-3.1V15.2z"/>
	</g>
	<g>
		<path fill="#FFFFFF" d="M48.4,47.8H11.5c-0.4,0-0.8-0.3-0.8-0.8V35.1c0-0.4,0.3-0.8,0.8-0.8h36.9c0.4,0,0.8,0.3,0.8,0.8V47
			C49.2,47.4,48.8,47.8,48.4,47.8z M12.3,46.3h35.4V35.9H12.3V46.3z"/>
	</g>
	<g>
		<path fill="#FFFFFF" d="M20.5,50.9h-9c-0.4,0-0.8-0.3-0.8-0.8V47c0-0.4,0.3-0.8,0.8-0.8h9c0.4,0,0.8,0.3,0.8,0.8v3.1
			C21.3,50.5,20.9,50.9,20.5,50.9z M12.3,49.4h7.5v-1.6h-7.5V49.4z"/>
	</g>
	<g>
		<path fill="#FFFFFF" d="M48.4,50.9h-9c-0.4,0-0.8-0.3-0.8-0.8V47c0-0.4,0.3-0.8,0.8-0.8h9c0.4,0,0.8,0.3,0.8,0.8v3.1
			C49.2,50.5,48.8,50.9,48.4,50.9z M40.2,49.4h7.5v-1.6h-7.5V49.4z"/>
	</g>
	<g>
		<path fill="#FFFFFF" d="M13,30.4c-0.4,0-0.8-0.3-0.8-0.8v-11c0-0.4,0.3-0.8,0.8-0.8s0.8,0.3,0.8,0.8v11C13.8,30,13.4,30.4,13,30.4
			z"/>
	</g>
	<g>
		<path fill="#FFFFFF" d="M30,19.9H17c-0.4,0-0.8-0.3-0.8-0.8s0.3-0.8,0.8-0.8h13c0.4,0,0.8,0.3,0.8,0.8S30.4,19.9,30,19.9z"/>
	</g>
	<g>
		<path fill="#FFFFFF" d="M46.5,30.4c-0.4,0-0.8-0.3-0.8-0.8v-11c0-0.4,0.3-0.8,0.8-0.8s0.8,0.3,0.8,0.8v11
			C47.3,30,46.9,30.4,46.5,30.4z"/>
	</g>
	<g>
		<path fill="#FFFFFF" d="M30,22.9H17c-0.4,0-0.8-0.3-0.8-0.8s0.3-0.8,0.8-0.8h13c0.4,0,0.8,0.3,0.8,0.8S30.4,22.9,30,22.9z"/>
	</g>
	<g>
		<path fill="#FFFFFF" d="M43,19.9h-5c-0.4,0-0.8-0.3-0.8-0.8s0.3-0.8,0.8-0.8h5c0.4,0,0.8,0.3,0.8,0.8S43.4,19.9,43,19.9z"/>
	</g>
	<g>
		<path fill="#FFFFFF" d="M43,22.9h-5c-0.4,0-0.8-0.3-0.8-0.8s0.3-0.8,0.8-0.8h5c0.4,0,0.8,0.3,0.8,0.8S43.4,22.9,43,22.9z"/>
	</g>
	<g>
		<rect x="12.2" y="45.9" fill="#3878FF" width="7.5" height="2.5"/>
	</g>
	<g>
		<rect x="40.2" y="45.5" fill="#3878FF" width="7.5" height="3.1"/>
	</g>
	<g>
		<rect x="32.5" y="12.5" fill="#3878FF" width="3.9" height="2.7"/>
	</g>
</g>
</svg>
