<?xml version="1.0" encoding="utf-8"?>
<!-- Generator: Adobe Illustrator 18.1.1, SVG Export Plug-In . SVG Version: 6.00 Build 0)  -->
<svg version="1.1" id="Layer_1" xmlns="http://www.w3.org/2000/svg" xmlns:xlink="http://www.w3.org/1999/xlink" x="0px" y="0px"
	 viewBox="0 0 32 32" enable-background="new 0 0 32 32" xml:space="preserve">
<g>
	<linearGradient id="SVGID_1_" gradientUnits="userSpaceOnUse" x1="31.8183" y1="31.8183" x2="10.6051" y2="10.6051">
		<stop  offset="0" style="stop-color:#1B1464;stop-opacity:0.2"/>
		<stop  offset="1" style="stop-color:#EE4722"/>
	</linearGradient>
	<path fill="url(#SVGID_1_)" d="M24.5,32h-15C5.4,32,2,28.6,2,24.5v-15C2,5.4,5.4,2,9.5,2h15C28.6,2,32,5.4,32,9.5v15
		C32,28.6,28.6,32,24.5,32z"/>
</g>
<g>
	<g>
		<path fill="#FFFFFF" d="M22.5,30h-15C3.3,30,0,26.6,0,22.5v-15C0,3.3,3.3,0,7.5,0h15C26.6,0,30,3.3,30,7.5v15
			C30,26.6,26.6,30,22.5,30z"/>
	</g>
	<g>
		<g>
			<path fill="#3878FF" d="M17.8,11.3h-1c-0.2,0-0.4-0.1-0.4-0.3v-6c0-0.2,0.1-0.3,0.4-0.3h1c0.2,0,0.4,0.2,0.4,0.3v6
				C18.1,11.1,18,11.3,17.8,11.3z M17.1,10.6h0.4V5.3h-0.4V10.6z"/>
		</g>
		<g>
			<path fill="#3878FF" d="M18.8,8.3h-3c-0.2,0-0.3-0.1-0.3-0.3v-2c0-0.2,0.1-0.3,0.3-0.3h3c0.2,0,0.4,0.2,0.4,0.3v2
				C19.1,8.1,19,8.3,18.8,8.3z M16.1,7.6h2.4V6.3h-2.4V7.6z"/>
		</g>
	</g>
	<g>
		<path fill="#3878FF" d="M25,16.8H5c-0.2,0-0.4-0.1-0.4-0.4v-1.5c0-0.2,0.2-0.4,0.4-0.4h20c0.2,0,0.4,0.1,0.4,0.4v1.5
			C25.4,16.5,25.2,16.8,25,16.8z M5.4,16h19.3v-0.8H5.4V16z"/>
	</g>
	<g>
		<path fill="#3878FF" d="M17.3,12.8c-0.1,0-0.3-0.1-0.3-0.3V12c0-0.1,0.1-0.3,0.3-0.3s0.3,0.1,0.3,0.3v0.5
			C17.5,12.6,17.4,12.8,17.3,12.8z"/>
	</g>
	<g>
		<path fill="#3878FF" d="M14.8,8.3h-1.6c-0.8,0-1.4-0.7-1.4-1.4s0.6-1.4,1.4-1.4h1.6c0.2,0,0.4,0.2,0.4,0.4S15,6.2,14.8,6.2h-1.6
			c-0.4,0-0.7,0.3-0.7,0.7c0,0.4,0.3,0.7,0.7,0.7h1.6c0.2,0,0.4,0.2,0.4,0.4C15.1,8.3,14.9,8.3,14.8,8.3z"/>
	</g>
	<g>
		<path fill="#3878FF" d="M23.3,8.3h-3c-0.2,0-0.4-0.1-0.4-0.4s0.1-0.4,0.4-0.4h3c0.2,0,0.4,0.2,0.4,0.4C23.6,8.1,23.5,8.3,23.3,8.3
			z"/>
	</g>
	<g>
		<path fill="#3878FF" d="M9.1,8.3H6.9c-0.2,0-0.3-0.1-0.3-0.3V5.8c0-0.2,0.2-0.3,0.3-0.3h2.2c0.2,0,0.3,0.2,0.3,0.3v2.2
			C9.4,8.1,9.3,8.3,9.1,8.3z M7.3,7.6h1.6V6.1H7.3V7.6z"/>
	</g>
	<g>
		<path fill="#3878FF" d="M24.2,23.9H5.8c-0.2,0-0.4-0.1-0.4-0.4v-6c0-0.2,0.2-0.4,0.4-0.4h18.5c0.2,0,0.4,0.1,0.4,0.4v6
			C24.6,23.7,24.4,23.9,24.2,23.9z M6.2,23.1h17.7V18H6.2V23.1z"/>
	</g>
	<g>
		<path fill="#3878FF" d="M10.3,25.5H5.8c-0.2,0-0.4-0.1-0.4-0.4v-1.6c0-0.2,0.2-0.4,0.4-0.4h4.5c0.2,0,0.4,0.1,0.4,0.4V25
			C10.6,25.3,10.4,25.5,10.3,25.5z M6.2,24.7h3.7v-0.8H6.1L6.2,24.7L6.2,24.7z"/>
	</g>
	<g>
		<path fill="#3878FF" d="M24.2,25.5h-4.5c-0.2,0-0.4-0.1-0.4-0.4v-1.6c0-0.2,0.1-0.4,0.4-0.4h4.5c0.2,0,0.4,0.1,0.4,0.4V25
			C24.6,25.3,24.4,25.5,24.2,25.5z M20.1,24.7h3.8v-0.8h-3.8V24.7z"/>
	</g>
	<g>
		<path fill="#3878FF" d="M6.5,15.2c-0.2,0-0.4-0.1-0.4-0.4V9.3c0-0.2,0.2-0.4,0.4-0.4s0.4,0.1,0.4,0.4v5.5
			C6.9,15,6.7,15.2,6.5,15.2z"/>
	</g>
	<g>
		<path fill="#3878FF" d="M15,9.9H8.5c-0.2,0-0.4-0.1-0.4-0.4s0.1-0.4,0.4-0.4H15c0.2,0,0.4,0.1,0.4,0.4S15.2,9.9,15,9.9z"/>
	</g>
	<g>
		<path fill="#3878FF" d="M23.3,15.2c-0.2,0-0.4-0.1-0.4-0.4V9.3c0-0.2,0.1-0.4,0.4-0.4s0.4,0.1,0.4,0.4v5.5
			C23.6,15,23.5,15.2,23.3,15.2z"/>
	</g>
	<g>
		<path fill="#3878FF" d="M15,11.4H8.5c-0.2,0-0.4-0.1-0.4-0.4s0.1-0.4,0.4-0.4H15c0.2,0,0.4,0.1,0.4,0.4S15.2,11.4,15,11.4z"/>
	</g>
	<g>
		<path fill="#3878FF" d="M21.5,9.9H19c-0.2,0-0.4-0.1-0.4-0.4s0.1-0.4,0.4-0.4h2.5c0.2,0,0.4,0.1,0.4,0.4S21.7,9.9,21.5,9.9z"/>
	</g>
	<g>
		<path fill="#3878FF" d="M21.5,11.4H19c-0.2,0-0.4-0.1-0.4-0.4s0.1-0.4,0.4-0.4h2.5c0.2,0,0.4,0.1,0.4,0.4S21.7,11.4,21.5,11.4z"/>
	</g>
	<g>
		<rect x="6.1" y="23" fill="#FFFFFF" width="3.8" height="1.3"/>
	</g>
	<g>
		<rect x="20.1" y="22.8" fill="#FFFFFF" width="3.8" height="1.5"/>
	</g>
	<g>
		<rect x="16.3" y="6.3" fill="#FFFFFF" width="2" height="1.3"/>
	</g>
	<path fill="#EE4722" d="M22.5,1.8c3.2,0,5.8,2.6,5.8,5.8v15c0,3.2-2.6,5.8-5.8,5.8h-15c-3.2,0-5.8-2.6-5.8-5.8v-15
		c0-3.2,2.6-5.8,5.8-5.8H22.5 M22.5,0h-15C3.4,0,0,3.4,0,7.5v15C0,26.6,3.4,30,7.5,30h15c4.1,0,7.5-3.4,7.5-7.5v-15
		C30,3.4,26.6,0,22.5,0L22.5,0z"/>
</g>
</svg>
