<?xml version="1.0" encoding="utf-8"?>
<!-- Generator: Adobe Illustrator 18.1.1, SVG Export Plug-In . SVG Version: 6.00 Build 0)  -->
<svg version="1.1" id="Layer_1" xmlns="http://www.w3.org/2000/svg" xmlns:xlink="http://www.w3.org/1999/xlink" x="0px" y="0px"
	 viewBox="-2 -3.6 34 39" enable-background="new -2 -3.6 34 39" xml:space="preserve">
<path fill="#3878FF" d="M30.5,5.8l-14-8c-0.5-0.3-1-0.4-1.5-0.4s-1,0.1-1.5,0.4l-14,8C-1.4,6.3-2,7.3-2,8.4v16
	c0,1.1,0.6,2.1,1.5,2.6l14,8c0.5,0.3,1,0.4,1.5,0.4s1-0.1,1.5-0.4l14-8c0.9-0.5,1.5-1.5,1.5-2.6v-16C32,7.3,31.4,6.3,30.5,5.8z
	 M29,8.4L29,8.4L29,8.4L29,8.4z M15,0.4l12.8,7.3l-2.6,1.6L12.3,1.9L15,0.4z M14.7,27.8L1,19.5v-0.9l2.5-1.7l14.6,8.8L14.7,27.8z
	 M4.5,15.2v-3.7L19,20.3v3.6L4.5,15.2z M20,18.6L5.4,9.6l3.3-2.2l14.6,8.8L20,18.6z M10.3,3.1L24.2,11v3.5L9.7,5.7V3.4L10.3,3.1z
	 M8.2,4.3V6L3.3,9.2C3.1,9.3,3,9.6,3,9.8v5.7l-2,1.3V8.4L8.2,4.3z M1,24.4v-2.5l12.8,7.7v2.1L1,24.4z M15,32.4L15,32.4L15,32.4
	L15,32.4z M16.3,31.7v-1.8l4.7-2.9c0.4-0.2,0.6-0.6,0.6-1.1v-5.3l4.6-3.2c0.3-0.2,0.5-0.6,0.5-1v-5.1L29,9.8v14.5L16.3,31.7z"/>
</svg>
